<svg xmlns="http://www.w3.org/2000/svg" height="24px" viewBox="0 0 24 24" width="24px" fill="#000000">
  <path d="M 3.5 21 C 3.1 21 2.75 20.85 2.45 20.55 C 2.15 20.25 2 19.9 2 19.5 L 2 10.23 L 3.5 10.23 L 3.5 19.5 L 14.8 19.5 L 14.8 21 L 3.5 21 Z M 6.525 18 C 6.125 18 5.771 17.85 5.463 17.55 C 5.154 17.25 5 16.9 5 16.5 L 5 7.23 L 6.5 7.23 L 6.5 16.5 L 17.825 16.5 L 17.825 18 L 6.525 18 Z M 9.5 15 C 9.1 15 8.75 14.85 8.45 14.55 C 8.15 14.25 8 13.9 8 13.5 L 8 4.5 C 8 4.1 8.15 3.75 8.45 3.45 C 8.75 3.15 9.1 3 9.5 3 L 20.5 3 C 20.9 3 21.25 3.15 21.55 3.45 C 21.85 3.75 22 4.1 22 4.5 L 22 13.5 C 22 13.9 21.85 14.25 21.55 14.55 C 21.25 14.85 20.9 15 20.5 15 L 9.5 15 Z M 9.5 13.5 L 20.5 13.5 L 20.5 6.05 L 9.5 6.05 L 9.5 13.5 Z"></path>
</svg>
