<svg xmlns="http://www.w3.org/2000/svg" height="24px" viewBox="0 0 24 24" width="24px">
  <path d="M 20 20 L 7 20 C 6.6 20 6.25 19.85 5.95 19.55 C 5.65 19.25 5.5 18.9 5.5 18.5 L 5.5 2.5 C 5.5 2.1 5.65 1.75 5.95 1.45 C 6.25 1.15 6.6 1 7 1 L 15.7 1 L 21.5 6.8 L 21.5 18.5 C 21.5 18.9 21.35 19.25 21.05 19.55 C 20.75 19.85 20.4 20 20 20 Z M 14.95 7.45 L 14.95 2.5 L 7 2.5 L 7 18.5 L 20 18.5 L 20 7.45 L 14.95 7.45 Z M 4 23 C 3.6 23 3.25 22.85 2.95 22.55 C 2.65 22.25 2.5 21.9 2.5 21.5 L 2.5 6.02 L 4 6.02 L 4 21.5 L 16.45 21.5 L 16.45 23 L 4 23 Z M 7 2.5 L 7 7.45 L 7 2.5 L 7 18.5 L 7 2.5 Z" style="fill: rgb(0, 0, 0);"></path>
</svg>
