<svg xmlns="http://www.w3.org/2000/svg" height="24px" viewBox="0 0 24 24" width="24px" fill="#000000">
  <path d="M 12 17.47 L 5.156 10.63 L 7.072 8.65 L 10.631 12.2 L 10.631 1.05 L 13.369 1.05 L 13.369 12.2 L 16.927 8.65 L 18.844 10.63 L 12 17.47 Z M 3.787 22.95 C 3.035 22.95 2.39 22.68 1.854 22.15 C 1.318 21.61 1.05 20.96 1.05 20.21 L 1.05 16.11 L 3.787 16.11 L 3.787 20.21 L 20.212 20.21 L 20.212 16.11 L 22.95 16.11 L 22.95 20.21 C 22.95 20.96 22.682 21.61 22.146 22.15 C 21.61 22.68 20.965 22.95 20.212 22.95 L 3.787 22.95 Z"></path>
</svg>
