<svg xmlns="http://www.w3.org/2000/svg" height="24px" viewBox="0 0 24 24" width="24px">
  <path d="M 4.5 19.46 L 5.6 19.46 L 17.4 7.73 L 16.3 6.63 L 4.5 18.35 L 4.5 19.46 Z M 3 20.95 L 3 17.75 L 17.375 3.47 C 17.508 3.34 17.667 3.24 17.85 3.16 C 18.033 3.09 18.225 3.05 18.425 3.05 C 18.608 3.05 18.792 3.09 18.975 3.16 C 19.158 3.24 19.325 3.34 19.475 3.47 L 20.575 4.56 C 20.725 4.71 20.833 4.88 20.9 5.06 C 20.967 5.25 21 5.43 21 5.62 C 21 5.8 20.963 5.99 20.888 6.18 C 20.813 6.37 20.708 6.52 20.575 6.65 L 6.2 20.95 L 3 20.95 Z M 19.475 5.59 L 18.45 4.56 L 19.475 5.59 Z M 16.85 7.18 L 16.3 6.63 L 17.4 7.73 L 16.85 7.18 Z"></path>
</svg>
