<?xml version="1.0" encoding="utf-8"?>
<svg xmlns="http://www.w3.org/2000/svg" viewBox="0 0 100 100" width="100px" height="100px"><rect width="100" height="100" style="paint-order: fill; stroke-opacity: 0; stroke-width: 0px; stroke: rgb(0, 0, 0);"/><g><path d="M 14.61 37.89 L 15.32 42.96 L 15.19 42.5 Q 16.69 39.84 19.42 38.18 Q 22.15 36.52 26.11 36.52 Q 30.14 36.52 32.84 38.9 Q 35.54 41.27 35.6 45.04 L 35.6 66.29 L 26.5 66.29 L 26.5 48.42 Q 26.44 46.53 25.49 45.4 Q 24.55 44.26 22.34 44.26 Q 20.26 44.26 18.7 45.62 Q 17.14 46.99 16.3 49.33 Q 15.45 51.67 15.45 54.72 L 15.45 66.29 L 6.35 66.29 L 6.35 37.89 Z M 80.26 57.06 L 95.08 57.06 L 95.08 66.29 L 67.91 66.29 Z M 43.53 42.44 Q 43.53 37.5 45.42 33.08 Q 47.3 28.66 50.65 25.25 Q 54 21.83 58.42 19.88 Q 62.84 17.93 67.91 17.93 Q 72.91 17.93 77.33 19.88 Q 81.75 21.83 85.16 25.25 Q 88.58 28.66 90.49 33.08 Q 92.41 37.5 92.41 42.44 Q 92.41 47.51 90.49 51.93 Q 88.58 56.35 85.16 59.7 Q 81.75 63.04 77.33 64.93 Q 72.91 66.81 67.91 66.81 Q 62.84 66.81 58.42 64.93 Q 54 63.04 50.65 59.7 Q 47.3 56.35 45.42 51.93 Q 43.53 47.51 43.53 42.44 Z M 53.28 42.44 Q 53.28 45.56 54.42 48.32 Q 55.56 51.08 57.6 53.2 Q 59.65 55.31 62.35 56.48 Q 65.05 57.65 68.23 57.65 Q 71.29 57.65 73.92 56.48 Q 76.55 55.31 78.5 53.23 Q 80.45 51.15 81.56 48.39 Q 82.66 45.62 82.66 42.44 Q 82.66 39.32 81.52 36.56 Q 80.39 33.79 78.4 31.71 Q 76.42 29.63 73.76 28.46 Q 71.09 27.29 67.97 27.29 Q 64.85 27.29 62.19 28.46 Q 59.52 29.63 57.51 31.71 Q 55.49 33.79 54.39 36.56 Q 53.28 39.32 53.28 42.44 Z" style="fill: rgb(255, 255, 255); stroke-width: 0px; text-wrap-mode: nowrap;"/><g id="preview" style="shape-rendering: crispedges; mix-blend-mode: darken;" transform="matrix(1, 0, 0, 1, -141.74437, -7.304282)"><g transform="matrix(1, 0, 0, 1, 141.74437, 7.304282)"><path d="M 57 52 L 72 64 L 66 44 Z" style="fill: rgb(190, 195, 244);"/><path d="M 72 64 L 84 45 L 66 44 Z" style="fill: rgb(197, 194, 240);"/><path d="M 72 64 L 83 72 L 84 45 Z" style="fill: rgb(211, 191, 229);"/><path d="M 57 52 L 45 64 L 72 64 Z" style="fill: rgb(190, 195, 244);"/><path d="M 72 64 L 64 91 L 83 72 Z" style="fill: rgb(220, 188, 225);"/><path d="M 84 45 L 74 23 L 66 44 Z" style="fill: rgb(161, 160, 205);"/><path d="M 66 44 L 44 31 L 57 52 Z" style="fill: rgb(155, 177, 230);"/><path d="M 57 52 L 30 52 L 45 64 Z" style="fill: rgb(160, 182, 234);"/><path d="M 74 23 L 44 31 L 66 44 Z" style="fill: rgb(135, 151, 200);"/><path d="M 100 51.54545454545455 L 100 45.473684210526315 L 87 27 L 84 45 Z" style="fill: rgb(187, 171, 200);"/><path d="M 84 45 L 87 27 L 74 23 Z" style="fill: rgb(151, 145, 183);"/><path d="M 45 64 L 64 91 L 72 64 Z" style="fill: rgb(205, 192, 234);"/><path d="M 44 31 L 30 52 L 57 52 Z" style="fill: rgb(139, 168, 223);"/><path d="M 45 64 L 56 92 L 64 91 Z" style="fill: rgb(207, 192, 229);"/><path d="M 100 71.22727272727273 L 100 58.69565217391305 L 83 72 Z" style="fill: rgb(229, 188, 206);"/><path d="M 83 72 L 100 58.69565217391305 L 100 51.54545454545455 L 84 45 Z" style="fill: rgb(216, 191, 219);"/><path d="M 22 89 L 56 92 L 45 64 Z" style="fill: rgb(177, 169, 208);"/><path d="M 87 27 L 74 15 L 74 23 Z" style="fill: rgb(134, 127, 166);"/><path d="M 74 23 L 56 11 L 44 31 Z" style="fill: rgb(115, 131, 178);"/><path d="M 30 52 L 28 64 L 45 64 Z" style="fill: rgb(138, 155, 205);"/><path d="M 94 86 L 100 77.81818181818181 L 100 71.22727272727273 L 83 72 Z" style="fill: rgb(235, 185, 203);"/><path d="M 64 91 L 94 86 L 83 72 Z" style="fill: rgb(230, 186, 210);"/><path d="M 74 15 L 56 11 L 74 23 Z" style="fill: rgb(130, 128, 170);"/><path d="M 44 31 L 26 23 L 30 52 Z" style="fill: rgb(86, 116, 168);"/><path d="M 56 92 L 64.66666666666667 100 L 67.46153846153847 100 L 64 91 Z" style="fill: rgb(225, 189, 211);"/><path d="M 64 91 L 67.46153846153847 100 L 74.55555555555556 100 L 94 86 Z" style="fill: rgb(234, 185, 204);"/><path d="M 32 12 L 26 23 L 44 31 Z" style="fill: rgb(66, 92, 141);"/><path d="M 30 52 L 14 53 L 28 64 Z" style="fill: rgb(111, 131, 181);"/><path d="M 26 23 L 14 53 L 30 52 Z" style="fill: rgb(85, 114, 164);"/><path d="M 22 89 L 38.5 100 L 49.84615384615385 100 L 56 92 Z" style="fill: rgb(187, 169, 196);"/><path d="M 22 89 L 45 64 L 28 64 Z" style="fill: rgb(143, 146, 190);"/><path d="M 64.66666666666667 100 L 56 92 L 49.84615384615385 100 Z" style="fill: rgb(222, 190, 210);"/><path d="M 56 11 L 32 12 L 44 31 Z" style="fill: rgb(95, 116, 165);"/><path d="M 90.76923076923077 100 L 100 100 L 100 100 L 100 87.05882352941177 L 94 86 Z" style="fill: rgb(251, 181, 178);"/><path d="M 100 77.81818181818181 L 94 86 L 100 87.05882352941177 Z" style="fill: rgb(243, 183, 191);"/><path d="M 100 45.473684210526315 L 100 25.555555555555557 L 87 27 Z" style="fill: rgb(173, 152, 174);"/><path d="M 87 27 L 94 4 L 74 15 Z" style="fill: rgb(144, 125, 156);"/><path d="M 7 73 L 22 89 L 28 64 Z" style="fill: rgb(134, 127, 167);"/><path d="M 100 18.875 L 100 6.823529411764706 L 94 4 L 87 27 Z" style="fill: rgb(153, 124, 144);"/><path d="M 74 15 L 72.8 0 L 64.38095238095238 0 L 56 11 Z" style="fill: rgb(140, 125, 163);"/><path d="M 56 11 L 45.733333333333334 0 L 39.5 0 L 32 12 Z" style="fill: rgb(106, 112, 156);"/><path d="M 100 25.555555555555557 L 100 18.875 L 87 27 Z" style="fill: rgb(149, 125, 145);"/><path d="M 74.55555555555556 100 L 90.76923076923077 100 L 94 86 Z" style="fill: rgb(244, 183, 189);"/><path d="M 14 53 L 7 73 L 28 64 Z" style="fill: rgb(126, 129, 172);"/><path d="M 64.38095238095238 0 L 45.733333333333334 0 L 56 11 Z" style="fill: rgb(135, 126, 166);"/><path d="M 93.36842105263158 0 L 87.71428571428571 0 L 94 4 Z" style="fill: rgb(158, 121, 146);"/><path d="M 94 4 L 87.71428571428571 0 L 72.8 0 L 74 15 Z" style="fill: rgb(152, 122, 153);"/><path d="M 38.5 100 L 22 89 L 27 100 Z" style="fill: rgb(168, 147, 170);"/><path d="M 13.291666666666666 100 L 27 100 L 22 89 Z" style="fill: rgb(151, 125, 144);"/><path d="M 26 23 L 6 28 L 14 53 Z" style="fill: rgb(75, 93, 139);"/><path d="M 14 53 L 0 59.666666666666664 L 0 68 L 7 73 Z" style="fill: rgb(137, 126, 165);"/><path d="M 9 6 L 6 28 L 26 23 Z" style="fill: rgb(60, 69, 110);"/><path d="M 9 6 L 26 23 L 32 12 Z" style="fill: rgb(56, 69, 112);"/><path d="M 100 6.8235294117647065 L 100 0.18181818181818166 L 94 4 Z" style="fill: rgb(163, 120, 135);"/><path d="M 39.5 0 L 30.58823529411765 0 L 32 12 Z" style="fill: rgb(89, 90, 130);"/><path d="M 100 0.18181818181818166 L 100 0 L 93.36842105263158 0 L 94 4 Z" style="fill: rgb(165, 119, 135);"/><path d="M 0 78.33333333333333 L 0 91.33333333333333 L 4 92 L 7 73 Z" style="fill: rgb(157, 121, 146);"/><path d="M 7 73 L 4 92 L 22 89 Z" style="fill: rgb(148, 124, 153);"/><path d="M 100 100 L 100 100 L 100 100 Z" style="fill: rgb(255, 180, 171);"/><path d="M 0 49.23076923076923 L 0 59.666666666666664 L 14 53 Z" style="fill: rgb(133, 127, 168);"/><path d="M 30.58823529411765 0 L 20.454545454545453 0 L 9 6 L 32 12 Z" style="fill: rgb(64, 68, 107);"/><path d="M 6 28 L 0 34 L 0 49.23076923076923 L 14 53 Z" style="fill: rgb(107, 109, 151);"/><path d="M 0 28.31578947368421 L 0 34 L 6 28 Z" style="fill: rgb(89, 89, 129);"/><path d="M 20.454545454545453 0 L 8 0 L 9 6 Z" style="fill: rgb(75, 65, 100);"/><path d="M 9 6 L 0 11.0625 L 0 22 L 6 28 Z" style="fill: rgb(72, 66, 102);"/><path d="M 1.7999999999999998 0 L 0 0 L 0 11.0625 L 9 6 Z" style="fill: rgb(84, 63, 94);"/><path d="M 0 22 L 0 28.31578947368421 L 6 28 Z" style="fill: rgb(68, 67, 105);"/><path d="M 0 95.61904761904762 L 0 100 L 3.619047619047619 100 L 4 92 Z" style="fill: rgb(167, 119, 132);"/><path d="M 4 92 L 3.619047619047619 100 L 13.291666666666666 100 L 22 89 Z" style="fill: rgb(158, 122, 140);"/><path d="M 0 78.33333333333333 L 7 73 L 0 68 Z" style="fill: rgb(151, 122, 155);"/><path d="M 0 91.33333333333333 L 0 95.61904761904762 L 4 92 Z" style="fill: rgb(165, 119, 134);"/><path d="M 8 0 L 1.8 0 L 9 6 Z" style="fill: rgb(86, 63, 93);"/></g></g></g></svg>
