<svg xmlns="http://www.w3.org/2000/svg" height="24px" viewBox="0 0 24 24" width="24px"><path d="M 10.907 17.465 L 13.093 17.465 L 13.093 10.907 L 10.907 10.907 L 10.907 17.465 Z M 12 8.721 C 12.31 8.721 12.569 8.616 12.779 8.407 C 12.988 8.197 13.093 7.938 13.093 7.628 C 13.093 7.318 12.988 7.059 12.779 6.849 C 12.569 6.64 12.31 6.535 12 6.535 C 11.69 6.535 11.431 6.64 11.221 6.849 C 11.012 7.059 10.907 7.318 10.907 7.628 C 10.907 7.938 11.012 8.197 11.221 8.407 C 11.431 8.616 11.69 8.721 12 8.721 Z M 12 22.93 C 10.488 22.93 9.067 22.643 7.737 22.069 C 6.407 21.496 5.251 20.717 4.267 19.733 C 3.283 18.749 2.505 17.592 1.931 16.263 C 1.357 14.933 1.07 13.512 1.07 12 C 1.07 10.488 1.357 9.067 1.931 7.737 C 2.505 6.407 3.283 5.251 4.267 4.267 C 5.251 3.283 6.407 2.505 7.737 1.931 C 9.067 1.357 10.488 1.07 12 1.07 C 13.512 1.07 14.933 1.357 16.263 1.931 C 17.593 2.505 18.749 3.283 19.733 4.267 C 20.717 5.251 21.495 6.407 22.069 7.737 C 22.643 9.067 22.93 10.488 22.93 12 C 22.93 13.512 22.643 14.933 22.069 16.263 C 21.495 17.592 20.717 18.749 19.733 19.733 C 18.749 20.717 17.593 21.496 16.263 22.069 C 14.933 22.643 13.512 22.93 12 22.93 Z M 12 20.744 C 14.441 20.744 16.509 19.897 18.203 18.203 C 19.897 16.509 20.744 14.441 20.744 12 C 20.744 9.559 19.897 7.491 18.203 5.797 C 16.509 4.103 14.441 3.256 12 3.256 C 9.559 3.256 7.491 4.103 5.797 5.797 C 4.103 7.491 3.256 9.559 3.256 12 C 3.256 14.441 4.103 16.509 5.797 18.203 C 7.491 19.897 9.559 20.744 12 20.744 Z M 12 12 Z"/></svg>
