<!--<svg xmlns="http://www.w3.org/2000/svg" viewBox="0 0 512 256">-->
<!--  <text style="fill: rgb(51, 51, 51); font-family: &quot;Google Sans&quot;; font-size: 124px; font-weight: 700; white-space: pre;" x="39.562" y="170.185">Quizlet</text>-->
<!--  <ellipse style="fill: rgb(255, 255, 255); stroke: rgb(255, 255, 255);" cx="233.667" cy="82.884" rx="15.176" ry="15.176"></ellipse>-->
<!--  <text style="fill: rgb(51, 51, 51); font-family: &quot;Comic Sans MS&quot;; font-size: 28px; font-style: italic; white-space: pre;" transform="matrix(1.075757, 0, 0, 1, 121.547195, -125.414062)"><tspan x="16.149" y="219.117">Unshittified</tspan><tspan x="16.149" dy="1em">​</tspan></text>-->
<!--</svg>-->
<svg width="330.101" height="93" viewBox="0 0 330.101 93" xmlns="http://www.w3.org/2000/svg">
  <g id="svgGroup" stroke-linecap="round" fill-rule="evenodd" font-size="9pt" stroke="#000" stroke-width="0.25mm" fill="#000" style="stroke:#000;stroke-width:0.25mm;fill:#000">
    <path d="M 46.701 74.8 L 63.901 93 L 49.001 93 L 35.501 76.9 Q 35.001 76.9 34.401 76.95 Q 33.801 77 33.301 77 Q 24.801 77 18.551 74.35 Q 12.301 71.7 8.151 66.85 Q 4.001 62 2.001 55.2 Q 0.001 48.4 0.001 40.1 Q 0.001 29.1 3.651 20.9 Q 7.301 12.7 14.701 8.1 Q 22.101 3.5 33.401 3.5 Q 44.401 3.5 51.751 8.05 Q 59.101 12.6 62.801 20.85 Q 66.501 29.1 66.501 40.2 Q 66.501 48.7 64.301 55.65 Q 62.101 62.6 57.751 67.5 Q 53.401 72.4 46.701 74.8 Z M 11.501 40.2 Q 11.501 48.7 13.801 54.9 Q 16.101 61.1 20.951 64.4 Q 25.801 67.7 33.301 67.7 Q 40.901 67.7 45.701 64.4 Q 50.501 61.1 52.801 54.9 Q 55.101 48.7 55.101 40.2 Q 55.101 27.4 49.951 20.1 Q 44.801 12.8 33.401 12.8 Q 25.801 12.8 20.951 16.1 Q 16.101 19.4 13.801 25.5 Q 11.501 31.6 11.501 40.2 Z" id="0" vector-effect="non-scaling-stroke"></path>
    <path d="M 116.401 22.1 L 127.101 22.1 L 127.101 76 L 118.601 76 L 117.101 68.9 L 116.601 68.9 Q 114.901 71.7 112.201 73.5 Q 109.501 75.3 106.301 76.15 Q 103.101 77 99.601 77 Q 93.401 77 89.051 74.95 Q 84.701 72.9 82.401 68.55 Q 80.101 64.2 80.101 57.4 L 80.101 22.1 L 90.901 22.1 L 90.901 55.8 Q 90.901 62 93.551 65.15 Q 96.201 68.3 101.801 68.3 Q 107.401 68.3 110.601 66.1 Q 113.801 63.9 115.101 59.65 Q 116.401 55.4 116.401 49.3 L 116.401 22.1 Z" id="1" vector-effect="non-scaling-stroke"></path>
    <path d="M 143.401 22.1 L 154.001 22.1 L 154.001 76 L 143.401 76 L 143.401 22.1 Z" id="2" vector-effect="non-scaling-stroke"></path>
    <path d="M 206.201 67.8 L 206.201 76 L 165.801 76 L 165.801 69.3 L 193.601 30.3 L 167.501 30.3 L 167.501 22.1 L 205.401 22.1 L 205.401 29.6 L 178.201 67.8 L 206.201 67.8 Z" id="3" vector-effect="non-scaling-stroke"></path>
    <path d="M 228.701 0 L 228.701 76 L 218.101 76 L 218.101 0 L 228.701 0 Z" id="4" vector-effect="non-scaling-stroke"></path>
    <path d="M 289.301 45.5 L 289.301 51.4 L 253.101 51.4 Q 253.301 59.6 257.501 64 Q 261.701 68.4 269.301 68.4 Q 274.401 68.4 278.401 67.45 Q 282.401 66.5 286.701 64.6 L 286.701 73.4 Q 282.601 75.2 278.501 76.1 Q 274.401 77 268.601 77 Q 260.801 77 254.851 73.95 Q 248.901 70.9 245.551 64.7 Q 242.201 58.5 242.201 49.4 Q 242.201 40.4 245.201 34.1 Q 248.201 27.8 253.701 24.45 Q 259.201 21.1 266.501 21.1 Q 273.601 21.1 278.751 24.05 Q 283.901 27 286.601 32.5 Q 289.301 38 289.301 45.5 Z M 253.301 43.5 L 278.701 43.5 Q 278.701 39.2 277.351 36.1 Q 276.001 33 273.351 31.15 Q 270.701 29.3 266.601 29.3 Q 260.801 29.3 257.401 33 Q 254.001 36.7 253.301 43.5 Z" id="5" vector-effect="non-scaling-stroke"></path>
    <path d="M 330.101 67.1 L 330.101 75.1 Q 328.401 75.9 325.501 76.45 Q 322.601 77 319.701 77 Q 315.301 77 311.651 75.5 Q 308.001 74 305.801 70.3 Q 303.601 66.6 303.601 60 L 303.601 30.2 L 296.101 30.2 L 296.101 25.4 L 304.001 21.4 L 307.701 10 L 314.201 10 L 314.201 22.1 L 329.601 22.1 L 329.601 30.2 L 314.201 30.2 L 314.201 59.8 Q 314.201 64.2 316.351 66.3 Q 318.501 68.4 322.001 68.4 Q 324.101 68.4 326.301 68 Q 328.501 67.6 330.101 67.1 Z" id="6" vector-effect="non-scaling-stroke"></path>
  </g>
  <text style="font-family: cursive; font-size: 19px; font-style: italic; letter-spacing: 1.6px; text-anchor: middle; white-space: pre;" x="143" y="16.973">Unshittified</text>
</svg>
