<svg xmlns="http://www.w3.org/2000/svg" height="24px" viewBox="0 0 24 24" width="24px">
  <path d="M 10.675 21 L 10.675 15.37 L 12.175 15.37 L 12.175 17.45 L 21 17.45 L 21 18.95 L 12.175 18.95 L 12.175 21 L 10.675 21 Z M 3 18.95 L 3 17.45 L 9.175 17.45 L 9.175 18.95 L 3 18.95 Z M 7.675 14.8 L 7.675 12.75 L 3 12.75 L 3 11.25 L 7.675 11.25 L 7.675 9.15 L 9.175 9.15 L 9.175 14.8 L 7.675 14.8 Z M 10.675 12.75 L 10.675 11.25 L 21 11.25 L 21 12.75 L 10.675 12.75 Z M 14.825 8.62 L 14.825 3 L 16.325 3 L 16.325 5.05 L 21 5.05 L 21 6.55 L 16.325 6.55 L 16.325 8.62 L 14.825 8.62 Z M 3 6.55 L 3 5.05 L 13.325 5.05 L 13.325 6.55 L 3 6.55 Z"></path>
</svg>
