<svg width="24px" height="24px" viewBox="0 0 24 24" xmlns="http://www.w3.org/2000/svg">
  <defs>
    <style>.a{fill:none;stroke:#000000;stroke-linecap:round;stroke-linejoin:round;}</style>
  </defs>
  <path class="a" d="M 12.7 1.272 C 9.385 1.056 6.161 2.411 3.995 4.932 C -0.612 10.269 1.128 18.528 7.497 21.552 C 10.498 22.973 13.993 22.897 16.93 21.349 C 16.976 21.325 17.028 21.314 17.08 21.317 C 17.132 21.32 17.182 21.336 17.226 21.365 C 18.601 22.287 20.224 22.769 21.88 22.749 C 22.044 22.749 22.177 22.616 22.177 22.452 L 22.177 18.835 C 22.178 18.764 22.153 18.695 22.108 18.64 C 22.064 18.586 22 18.549 21.931 18.537 C 21.59 18.483 21.257 18.387 20.94 18.252 C 20.861 18.216 20.801 18.148 20.776 18.064 C 20.765 18.023 20.762 17.979 20.768 17.937 C 20.774 17.894 20.789 17.853 20.812 17.817 C 24.068 12.924 22.76 6.319 17.885 3.037 C 16.339 1.999 14.546 1.387 12.688 1.266 L 12.7 1.272 Z M 5.594 11.909 C 5.588 9.303 7.149 6.948 9.552 5.941 C 11.952 4.94 14.718 5.492 16.551 7.337 C 19.417 10.219 18.948 14.999 15.577 17.269 C 13.032 18.977 9.633 18.641 7.472 16.467 C 6.267 15.256 5.591 13.617 5.59 11.908 L 5.594 11.909 Z" style="fill: rgb(0, 0, 0); stroke: none;"></path>
</svg>
