<svg xmlns="http://www.w3.org/2000/svg" height="24px" viewBox="0 0 24 24" width="24px">
  <path d="M 21 6.92 L 21 19.5 C 21 19.9 20.85 20.25 20.55 20.54 C 20.25 20.85 19.9 21 19.5 21 L 4.5 21 C 4.1 21 3.75 20.85 3.45 20.54 C 3.15 20.25 3 19.9 3 19.5 L 3 4.5 C 3 4.1 3.15 3.75 3.45 3.46 C 3.75 3.15 4.1 3 4.5 3 L 17.075 3 L 21 6.92 Z M 19.5 7.6 L 16.4 4.5 L 4.5 4.5 L 4.5 19.5 L 19.5 19.5 L 19.5 7.6 Z M 11.994 17.87 C 12.714 17.87 13.329 17.62 13.838 17.12 C 14.346 16.61 14.6 16 14.6 15.28 C 14.6 14.56 14.348 13.94 13.844 13.44 C 13.339 12.93 12.727 12.67 12.006 12.67 C 11.286 12.67 10.671 12.93 10.162 13.43 C 9.654 13.93 9.4 14.55 9.4 15.27 C 9.4 15.99 9.652 16.6 10.156 17.12 C 10.661 17.62 11.273 17.87 11.994 17.87 Z M 5.825 9.39 L 14.775 9.39 L 14.775 5.82 L 5.825 5.82 L 5.825 9.39 Z M 4.5 7.6 L 4.5 19.5 L 4.5 4.5 L 4.5 7.6 Z"></path>
</svg>
