<svg xmlns="http://www.w3.org/2000/svg" height="24px" viewBox="0 0 24 24" width="24px"><path d="M 9.585 22.5 L 9.06 19.193 C 8.728 19.07 8.378 18.904 8.01 18.694 C 7.643 18.484 7.319 18.265 7.039 18.037 L 3.941 19.455 L 1.5 15.15 L 4.335 13.076 C 4.3 12.919 4.278 12.744 4.269 12.542 C 4.261 12.333 4.256 12.157 4.256 12 C 4.256 11.843 4.261 11.667 4.269 11.458 C 4.278 11.256 4.3 11.081 4.335 10.924 L 1.5 8.85 L 3.941 4.545 L 7.039 5.962 C 7.319 5.735 7.643 5.516 8.01 5.306 C 8.378 5.096 8.728 4.939 9.06 4.834 L 9.585 1.5 L 14.415 1.5 L 14.94 4.808 C 15.273 4.93 15.627 5.096 16.003 5.298 C 16.379 5.499 16.699 5.718 16.961 5.962 L 20.059 4.545 L 22.5 8.85 L 19.665 10.871 C 19.7 11.046 19.722 11.23 19.731 11.44 C 19.739 11.641 19.744 11.825 19.744 12 C 19.744 12.175 19.739 12.359 19.731 12.551 C 19.722 12.744 19.7 12.928 19.665 13.103 L 22.5 15.15 L 20.059 19.455 L 16.961 18.037 C 16.681 18.265 16.362 18.484 16.003 18.703 C 15.644 18.921 15.29 19.088 14.94 19.193 L 14.415 22.5 L 9.585 22.5 Z M 10.845 20.925 L 13.155 20.925 L 13.523 17.985 C 14.1 17.845 14.647 17.626 15.163 17.329 C 15.679 17.031 16.147 16.673 16.567 16.253 L 19.35 17.46 L 20.4 15.57 L 17.933 13.759 C 18.002 13.461 18.059 13.173 18.103 12.875 C 18.147 12.586 18.169 12.298 18.169 12 C 18.169 11.703 18.151 11.414 18.116 11.125 C 18.081 10.828 18.02 10.539 17.933 10.241 L 20.4 8.43 L 19.35 6.54 L 16.567 7.748 C 16.165 7.293 15.71 6.908 15.203 6.61 C 14.695 6.304 14.135 6.103 13.523 6.015 L 13.155 3.075 L 10.845 3.075 L 10.478 6.015 C 9.883 6.138 9.327 6.348 8.811 6.645 C 8.294 6.943 7.835 7.31 7.433 7.748 L 4.65 6.54 L 3.6 8.43 L 6.068 10.241 C 5.998 10.539 5.941 10.828 5.897 11.125 C 5.853 11.414 5.831 11.703 5.831 12 C 5.831 12.298 5.853 12.586 5.897 12.875 C 5.941 13.173 5.998 13.461 6.068 13.759 L 3.6 15.57 L 4.65 17.46 L 7.433 16.253 C 7.853 16.673 8.321 17.031 8.837 17.329 C 9.353 17.626 9.9 17.845 10.478 17.985 L 10.845 20.925 Z M 12 15.413 C 12.945 15.413 13.75 15.08 14.415 14.415 C 15.08 13.75 15.413 12.945 15.413 12 C 15.413 11.055 15.08 10.25 14.415 9.585 C 13.75 8.92 12.945 8.587 12 8.587 C 11.055 8.587 10.25 8.92 9.585 9.585 C 8.92 10.25 8.587 11.055 8.587 12 C 8.587 12.945 8.92 13.75 9.585 14.415 C 10.25 15.08 11.055 15.413 12 15.413 Z M 12 12 Z"></path></svg>
