<svg xmlns="http://www.w3.org/2000/svg" height="24px" viewBox="0 0 24 24" width="24px">
  <path d="M 11.265 19.3 L 12.84 19.3 L 12.84 14.02 L 14.993 16.17 L 16.095 15.07 L 12 11.08 L 7.958 15.12 L 9.06 16.23 L 11.265 14.02 L 11.265 19.3 Z M 5.175 22.5 C 4.755 22.5 4.388 22.34 4.073 22.03 C 3.758 21.71 3.6 21.35 3.6 20.92 L 3.6 3.08 C 3.6 2.65 3.758 2.29 4.073 1.97 C 4.388 1.66 4.755 1.5 5.175 1.5 L 14.651 1.5 L 20.4 7.25 L 20.4 20.92 C 20.4 21.35 20.243 21.71 19.928 22.03 C 19.613 22.34 19.245 22.5 18.825 22.5 L 5.175 22.5 Z M 13.864 7.96 L 13.864 3.08 L 5.175 3.08 L 5.175 20.92 L 18.825 20.92 L 18.825 7.96 L 13.864 7.96 Z M 5.175 3.08 L 5.175 7.96 L 5.175 3.08 L 5.175 20.92 L 5.175 3.08 Z"></path>
</svg>
