<svg xmlns="http://www.w3.org/2000/svg" height="24px" viewBox="0 0 24 24" width="24px" fill="#000000">
  <path d="M 2 23 L 2 19.98 L 22 19.98 L 22 23 L 2 23 Z M 5.5 15.48 L 6.6 15.48 L 16.375 5.7 L 15.825 5.15 L 15.275 4.6 L 5.5 14.37 L 5.5 15.48 Z M 4 16.98 L 4 13.77 L 16.35 1.42 C 16.5 1.27 16.667 1.17 16.85 1.1 C 17.033 1.03 17.217 1 17.4 1 C 17.583 1 17.771 1.03 17.963 1.1 C 18.154 1.17 18.317 1.27 18.45 1.42 L 19.55 2.52 C 19.7 2.66 19.813 2.82 19.888 3.01 C 19.963 3.2 20 3.39 20 3.58 C 20 3.76 19.963 3.94 19.888 4.12 C 19.813 4.31 19.7 4.48 19.55 4.62 L 7.2 16.98 L 4 16.98 Z M 18.4 3.55 L 17.375 2.52 L 18.4 3.55 Z M 16.375 5.7 L 15.825 5.15 L 15.275 4.6 L 16.375 5.7 Z"></path>
</svg>
